<svg xmlns="http://www.w3.org/2000/svg" width="561" height="64" viewBox="0 0 561 64" xmlns:xlink="http://www.w3.org/1999/xlink">
  <defs>
    <polygon id="a" points="23.886 42.496 23.886 .726 .37 .726 .37 42.496 23.886 42.496"/>
  </defs>
  <g fill="none" fill-rule="evenodd">
    <path fill="#FFFFFF" d="M387.4293 54.4017C387.4293 49.9047 387.5513 45.3347 387.5513 40.7647 387.5513 29.5597 389.0003 18.3547 389.0003 7.0767 389.0003 7.0767 389.0323 6.5397 389.0003 6.1187 388.8553 5.3317 388.7913 5.2537 388.7913 5.1797 388.7913 4.2207 390.1493 3.2437 391.1073 3.2437 391.8443 3.2437 393.2393 3.5447 393.8063 4.6017 394.0593 5.0727 394.0003 6.7077 394.0003 6.7077 394.0003 14.8167 393.0003 22.9257 393.0003 31.1077L393.0003 32.8767C393.0003 32.9507 392.8683 33.0977 393.1633 33.0977 394.8583 32.5077 396.0463 31.1817 397.2253 29.9287L397.3033 29.7077C400.0313 26.6107 400.5123 21.0087 401.1023 17.3227 401.1753 17.0277 402.1163 16.1437 402.4113 16.0697 402.4113 16.0697 402.8443 15.9957 403.0663 15.9957 404.3923 15.9957 406.0833 16.1437 406.0833 17.9127 406.0833 22.9987 404.1653 29.2647 400.6263 32.8767L398.2673 35.3097C398.1933 35.3827 397.3813 35.6777 397.3813 36.1207 401.2883 38.2577 404.6793 41.6497 406.3743 45.8507 407.6283 49.0937 408.0703 52.3377 408.8803 55.9497 408.8803 57.7187 407.8483 59.7827 405.7853 59.7827 403.2783 59.7827 403.4263 56.6127 403.2043 54.9177 402.6153 49.1677 399.2083 40.5437 392.5733 40.5437 392.5733 44.0817 393.0003 47.4727 393.0003 51.0107L393.0003 54.8437C393.0003 57.4237 392.3523 60.0047 389.4783 60.0047 388.1503 60.0047 387.3473 59.5617 387.3473 58.0137 387.3473 56.8347 387.4293 55.6547 387.4293 54.4017M424.0369 46.6985C427.0589 46.6985 430.9999 46.0345 432.9999 43.4545L432.9999 42.3495 432.9999 35.6415 432.9999 34.6825C432.9999 33.8715 432.6619 32.1025 432.6619 32.0295L432.0869 31.5125C432.0869 31.5125 430.6939 31.1445 430.1049 31.1445 429.5149 31.0715 428.8179 30.9975 428.1549 30.9975 423.2159 30.9975 417.6929 33.3565 417.1029 39.1795 417.1759 43.0125 420.4249 46.6985 424.0369 46.6985M423.6249 52.0005L423.3299 52.0005C417.3599 52.0005 411.9999 47.1405 411.9999 40.6535L411.9999 40.0645C412.9999 26.7955 423.6989 27.0005 430.4069 27.0005L431.6599 27.0005C431.5869 25.0005 430.9229 23.4905 430.1859 21.8685 428.2689 17.6665 426.1319 16.0005 421.5609 16.0005L420.9719 16.0005C419.3499 16.0005 418.2969 17.3065 416.6009 17.3065 415.9379 17.3065 413.9999 17.1385 413.9999 16.4755L413.9999 15.3695C413.9999 12.0525 418.9069 11.0005 421.4869 11.0005L422.0039 11.0005C434.9039 11.0005 437.9999 22.0775 437.9999 33.7985L437.9999 38.6635C437.9999 42.6445 437.7789 46.5515 437.4839 50.3845 436.3779 50.9005 436.0829 52.1535 434.6089 52.1535 431.2919 52.1535 432.7289 50.0495 431.9179 49.8285 429.5599 51.4505 426.2049 52.0005 423.6249 52.0005M445.1514 25.2105C445.1514 24.3255 445.1514 23.4415 445.0774 22.7775 444.7094 22.2615 444.0704 22.1885 443.3344 22.1885 442.6704 22.1885 441.5114 22.2015 441.0004 19.8295 440.9844 19.7575 440.9694 19.6015 441.0004 19.5345 442.0964 17.0995 443.3344 17.9125 445.1764 17.3965 445.1764 17.3965 445.4594 17.2495 445.4594 17.1755 445.9744 11.6475 446.2264 7.1505 446.8904 1.4745 447.4064.2205 447.8634.0005 449.1904.0005 451.4014.0005 451.7784.8845 451.7784 3.0955 451.7784 7.2245 451.1924 11.4255 451.1924 15.6275 451.1924 16.0695 451.2674 17.4775 451.2674 17.5505L451.4904 18.0005 453.1864 18.0005C454.2184 18.0005 455.6924 17.6985 457.1664 17.6985 460.0414 17.6985 462.9894 18.2855 462.9894 21.2335 462.9894 22.9295 461.4424 23.0005 459.8944 23.0005L459.3774 23.0005C458.1984 23.0005 455.8394 22.7785 453.9234 22.7785 452.6704 22.7785 451.5644 22.7045 451.0484 22.8515L450.7534 23.0365C450.5324 25.7635 450.4594 29.3565 450.4594 32.5265 450.4594 37.2445 450.6064 42.3215 450.6064 47.1135 450.6064 48.7345 450.6064 50.2785 450.5324 51.7525 450.9744 55.5115 451.1224 57.7945 455.3234 57.7945 460.7044 57.7945 460.8304 53.4445 464.2214 53.4445 465.8434 53.4445 467.0004 55.0645 467.0004 56.5395L467.0004 57.4975C464.0004 60.2985 459.8714 63.2475 455.8904 63.2475 451.3944 63.2475 447.3884 61.2575 446.2084 56.5395 445.9144 55.4335 445.1644 52.4115 445.1644 29.8545 445.1644 29.0435 445.1514 27.0535 445.1514 25.2105M471.4673 29.9285C471.4673 19.5345 471.6893 9.4935 472.2043 1.8275 472.4993.7945 473.3103 1.0005 474.2693 1.0005L474.6373 1.0005C475.0053 1.0005 475.1173.9465 475.5673 1.0645 475.9243 1.1575 477.0003 1.9165 477.0003 2.1375L477.0003 4.2015C477.0003 8.3295 476.7403 12.3105 476.7403 17.9865 476.7403 19.9765 476.7943 22.1885 476.9423 24.6205 476.9423 24.6205 477.3373 24.4855 477.4113 24.4855 480.3603 22.7155 484.1473 20.0005 487.8323 20.0005L488.2753 20.0005C489.9703 20.0005 491.8133 20.6525 493.2873 21.5365 498.8163 24.7065 497.3413 30.4875 498.3003 59.3835 498.3003 60.4895 496.7513 62.7535 495.4983 62.7535 494.7613 62.7535 493.0663 62.5945 492.6233 61.7835L492.8453 38.4845C492.8453 37.7475 492.4763 32.9535 492.4033 31.6265 492.1813 29.0465 491.5913 24.8435 488.2003 24.8435 487.3903 24.8435 486.9473 24.9165 486.0633 25.0635 483.1143 26.2435 477.8803 29.0445 476.7753 32.5825 476.7753 33.0255 476.7013 35.1625 476.7013 35.6045 476.7013 40.1755 477.1663 44.8195 477.1663 49.3155 477.1663 50.2735 478.0003 57.7195 478.0003 59.5615L478.0003 60.2995C478.0003 61.5525 476.6503 62.9525 475.3233 62.9525 473.7023 62.9525 472.7323 62.2155 472.5113 60.6675 471.8473 53.4435 471.4673 41.7965 471.4673 29.9285M512.6021 29L521.3731 29C524.1751 29 527.1231 27.953 527.1231 24.783 527.1231 21.761 525.3551 15.156 521.4481 15.156 515.6981 15.156 511.2021 22.778 511.2021 27.865 511.2021 29.118 511.6431 29 512.6021 29M521.2521 10.394C528.6241 10.394 533.0001 19.019 533.0001 25.284L533.0001 27.422C531.0001 33.835 526.3131 35 521.8161 35L518.4981 35C515.9191 35 513.4871 34.491 510.9801 34.491 510.9801 39.062 512.0851 48.132 518.4981 48.132 521.5951 48.132 524.2481 46.586 526.2391 44.154 527.1981 42.753 527.1231 41.316 528.9661 41.316 529.7781 41.316 531.9891 41.593 531.9891 42.699 531.9891 48.375 524.4701 52.863 519.3831 52.863 508.4001 52.863 505.8331 42.686 505.8331 33.25 505.8331 24.036 509.9741 11.5 521.2521 10.394"/>
    <g transform="translate(537 10.248)">
      <mask id="b" fill="white">
        <use xlink:href="#a"/>
      </mask>
      <path fill="#FFFFFF" d="M0.8873,21.7817 C0.8133,17.4317 0.4453,12.8617 0.4453,8.4387 C0.4453,7.4807 0.3703,6.5227 0.3703,5.4897 C0.3703,3.7207 0.5183,2.1997 1.3293,0.7257 C1.3293,0.7257 1.4763,0.7527 1.5503,0.7527 L2.7303,0.7527 C5.6783,0.7527 5.8253,2.9377 5.9733,5.3697 C6.0473,5.9587 6.1943,7.3097 6.4153,7.3097 C8.3323,5.2457 11.5753,3.9617 14.0813,2.9307 C15.1143,2.5617 15.9243,2.7527 16.8833,2.7527 L17.6943,2.7527 C21.0843,2.7527 22.1913,4.4897 23.8123,7.2917 C23.8123,7.5127 23.8863,8.5287 23.8863,8.7497 C23.8863,9.1917 23.8123,10.2157 23.8123,10.2897 C23.8123,10.4367 23.4443,11.5017 23.3693,11.6497 C22.7803,13.7137 22.9333,15.8307 20.3533,15.8307 C19.1003,15.8307 19.0003,15.4417 18.0003,14.3367 L18.0003,13.1567 L18.0003,8.4387 L18.0003,7.9967 C18.0003,7.7017 17.9203,7.4067 17.4783,7.4067 C13.7923,7.4067 7.8933,10.5767 6.1963,14.3367 C6.0503,15.1467 5.8773,17.0637 5.8773,19.3487 C5.8773,23.9927 6.0003,30.2587 6.0003,32.7647 L6.0003,33.3547 C6.0003,35.6397 6.5393,37.9257 6.5393,40.2107 C6.5393,41.6847 5.2613,42.4957 4.0073,42.4957 C2.9023,42.4957 1.3053,41.8317 1.3053,40.4317 C1.0833,34.1657 1.0343,28.0477 0.8873,21.7817" mask="url(#b)"/>
    </g>
    <path fill="#FFFFFF" d="M80.1657,42.6941 C76.6587,46.4001 72.2597,47.8151 67.2617,48.0671 C62.3607,48.3131 55.9537,48.4841 51.8377,45.4431 C42.5617,38.5891 50.3777,25.3011 57.8627,20.8391 C59.7277,19.8491 61.1747,18.3611 62.1517,16.5891 C65.3747,18.6851 68.6117,19.0821 73.3367,18.9251 C86.5917,18.4841 87.4307,35.0171 80.1657,42.6941 M88.7147,24.0861 C86.8307,19.0581 82.5547,15.0051 77.1907,14.0331 C73.5877,13.3791 70.0267,14.8741 66.4677,13.5471 C64.7667,12.9121 64.0077,11.8921 62.7537,10.6861 C61.4887,9.4681 58.9437,9.8731 58.5757,11.7891 C58.1867,13.8131 57.1987,15.5351 55.3387,16.5221 C46.2217,21.9581 39.1117,34.3231 44.6837,44.6741 C47.2987,49.5311 52.0877,51.9231 57.3957,52.6661 C63.4337,53.5101 70.6467,53.7401 76.3617,51.3081 C86.6057,46.9501 92.7087,34.7431 88.7147,24.0861"/>
    <path fill="#FFFFFF" d="M77.3337 21.9784C73.2197 18.3794 68.4077 16.3214 63.8547 13.4984 63.6207 13.2744 63.3357 13.1114 63.0217 13.0084 62.0987 12.5154 61.2167 12.6914 60.5697 13.2174 59.8017 13.2104 59.0287 13.5484 58.5027 14.3864 54.0947 21.4134 49.9297 29.6094 50.8357 38.1694 51.4077 43.5644 54.1427 47.9874 57.5397 52.0704 59.6007 54.5464 63.1207 50.9924 61.0757 48.5344 54.4767 40.6044 55.1637 32.3674 58.8567 24.1744 58.4477 34.2404 59.3267 45.4174 66.4747 52.0704 68.8277 54.2604 72.3717 50.7324 70.0097 48.5344 63.5577 42.5294 63.3047 31.6684 63.8967 22.3804 66.1127 25.5984 68.2207 28.9174 69.7167 32.4514 71.7327 37.2154 72.0377 42.4364 72.4367 47.5294 72.6867 50.7164 77.6887 50.7434 77.4367 47.5294 77.0107 42.0804 76.6627 36.5094 74.6437 31.3714 73.5797 28.6634 72.1757 26.0964 70.6297 23.6044 76.9617 27.9174 81.9237 33.1424 81.0347 42.5624 80.7327 45.7644 85.7347 45.7434 86.0347 42.5624 86.8007 34.4464 83.3947 27.2814 77.3337 21.9784M174.5383 16.2833C163.7873 14.5183 157.8123 26.4373 157.3283 35.6233 156.8203 45.2623 162.4673 51.5823 172.1993 50.8353 175.3873 50.5913 175.4133 45.5893 172.1993 45.8353 166.0313 46.3083 162.5023 43.8153 162.3003 37.3223 162.1263 31.7603 165.5153 19.8413 173.2093 21.1043 176.3573 21.6213 177.7113 16.8043 174.5383 16.2833"/>
    <path fill="#FFFFFF" d="M182.4098,47.0774 C178.8678,48.5654 174.4818,48.2994 173.1658,44.4014 C172.0538,41.1044 171.7818,37.5794 172.0298,34.1244 C172.2458,31.1124 172.8248,27.6034 174.2608,24.8754 C176.1618,21.2644 180.4188,18.8734 182.8078,23.4464 C184.8568,29.1134 189.1028,44.2664 182.4098,47.0774 M187.4708,21.6844 C187.4388,21.5964 187.3918,21.5244 187.3528,21.4444 C187.3138,21.3254 187.2788,21.2074 187.2188,21.0874 C182.6688,11.8494 172.4188,16.2124 169.2458,23.9344 C167.2938,28.6854 166.6258,34.1514 167.0728,39.2524 C167.4328,43.3714 168.3498,49.4024 172.3288,51.6244 C178.7918,55.2324 188.3498,52.0004 190.0968,44.7554 C191.8268,37.5814 190.0128,28.4904 187.4708,21.6844"/>
    <path fill="#FFFFFF" d="M184.9071,22.4077 C190.3501,18.4077 194.5821,31.2837 195.3451,34.7857 C196.6471,40.7697 194.2561,45.3537 187.4431,44.2717 C184.2951,43.7707 182.9401,48.5887 186.1141,49.0927 C195.7661,50.6257 202.1821,44.4867 200.4211,34.7327 C199.1111,27.4797 192.2151,10.8647 182.3831,18.0907 C179.8181,19.9757 182.3091,24.3167 184.9071,22.4077"/>
    <path fill="#FFFFFF" d="M181.2991 17.7114C181.3501 15.9914 181.4011 14.2724 181.4521 12.5524 181.5471 9.3334 176.5471 9.3364 176.4521 12.5524 176.4011 14.2724 176.3501 15.9914 176.2991 17.7114 176.2041 20.9304 181.2041 20.9274 181.2991 17.7114M224.6318 16.1314C213.7788 20.3874 209.5648 32.5204 213.5298 43.2294 217.6218 54.2854 232.5378 55.5844 242.4798 53.1174 254.3708 50.1664 259.3668 40.5474 258.5228 28.7454 257.6168 16.0714 246.6248 14.4934 236.1878 16.3624 233.0248 16.9294 234.3648 21.7484 237.5168 21.1844 241.2358 20.5184 246.0668 19.6204 249.5888 21.5514 253.2468 23.5564 253.6688 27.9274 253.5588 31.6704 253.3078 40.2624 249.7708 46.2454 241.1508 48.2954 234.3318 49.9174 222.3548 49.9574 218.6768 42.6374 214.7888 34.9014 217.6388 24.2164 225.9608 20.9524 228.9228 19.7914 227.6338 14.9544 224.6318 16.1314"/>
    <path fill="#FFFFFF" d="M245.3501 13.6369C244.2531 11.2129 241.3671 11.3219 238.5971 12.0659 238.5021 10.8449 237.9141 9.7899 236.4471 9.2809 233.4631 8.2459 232.0581 11.2909 231.1751 13.8199 229.5161 12.7439 227.7991 11.9719 225.8751 11.4209 224.2001 10.9419 222.0621 12.6789 222.7991 14.4959 223.5931 16.4509 224.7951 17.7129 226.3161 18.6649 224.9201 20.5809 224.0281 22.9349 225.7391 24.5899 227.8881 26.6669 230.9961 24.5719 233.3821 22.7099 235.0251 25.4189 237.6731 28.0399 240.4971 26.7169 243.5211 25.2999 242.5941 21.9739 241.0331 19.1779 242.7201 18.6269 244.2381 17.6749 245.3501 16.1609 245.9031 15.4069 245.6981 14.4059 245.3501 13.6369M303.3632 43.9268C295.9462 52.2028 281.8992 49.6018 277.7452 39.6028 274.4902 31.7678 276.8982 23.2318 283.0902 17.6058 287.3862 13.7028 292.8152 13.8758 298.1292 15.7678 307.4502 20.4358 310.2742 36.2158 303.3632 43.9268M300.4002 11.3188C300.2992 11.2708 300.2002 11.2458 300.1002 11.2118 300.0032 11.1618 299.9112 11.1068 299.8022 11.0668 291.1312 7.8568 283.5642 9.3698 277.7882 15.8818 270.3132 24.3108 268.4942 37.8258 276.2262 46.8398 284.6022 56.6038 301.3342 56.1308 308.5952 45.2538 315.4482 34.9878 312.0752 16.8388 300.4002 11.3188"/>
    <path fill="#FFFFFF" d="M292.8278 21.5534C293.3108 21.5564 293.7928 21.5584 294.2758 21.5614 295.5838 21.5684 296.8358 20.4064 296.7758 19.0614 296.7148 17.7004 295.6768 16.5694 294.2758 16.5614 293.7928 16.5584 293.3108 16.5564 292.8278 16.5534 291.5198 16.5464 290.2678 17.7084 290.3278 19.0534 290.3888 20.4144 291.4258 21.5454 292.8278 21.5534M119.9826 15.656C126.7256 11.866 135.0026 14.384 139.0256 20.836 143.7816 28.463 141.7856 37.182 135.2196 43.013 132.8086 45.154 136.3556 48.68 138.7546 46.549 147.3746 38.894 149.2616 26.756 142.6006 17.182 136.9906 9.116 126.0746 6.496 117.4586 11.339 114.6536 12.915 117.1716 17.236 119.9826 15.656"/>
    <path fill="#FFFFFF" d="M126.5889 49.0062C122.5009 49.7872 118.0059 49.7962 114.0319 48.4502 103.3419 44.8292 101.0739 30.2462 106.9089 21.5842 109.1329 18.7002 112.5269 15.2262 116.3709 14.0912 116.4299 14.3152 116.4799 14.5332 116.5629 14.7752 117.3509 17.0552 117.6679 17.0882 117.8619 19.9492 117.9089 20.6452 117.7429 21.3362 117.9639 22.0532 118.4389 23.5872 119.2519 23.8372 120.5239 24.7752 123.5259 26.9892 124.0289 29.7292 126.2509 32.3842 127.2639 33.5942 128.5419 33.7472 129.7819 34.5462 132.8359 36.5132 131.9439 36.7992 131.3599 39.5822 131.1049 40.7942 131.2219 41.8872 131.8189 42.9822 132.3119 43.8872 134.6689 45.6352 134.5999 45.9762 134.3039 47.4322 127.8879 48.7582 126.5889 49.0062M139.3789 43.9752C138.9779 43.1052 138.1689 42.6262 137.6509 41.8702 136.7079 40.4912 136.4509 41.4452 136.7599 39.5262 137.0709 37.5872 138.4699 36.5542 137.6699 34.3212 136.9599 32.3392 135.2229 31.2082 133.3779 30.4372 131.6079 29.6972 130.7659 29.9172 129.4589 27.9632 128.7969 26.9742 128.4519 25.8022 127.7529 24.7992 126.4119 22.8752 124.7189 21.6702 122.8929 20.4062 122.9659 19.2652 123.2089 18.1572 122.9229 16.9442 122.5449 15.3432 120.8179 13.5392 121.1019 11.8712 121.3639 10.3292 120.4489 8.6652 118.6909 8.7062 111.9619 8.8652 106.4259 14.0882 102.5919 19.0602 102.4609 19.2302 102.3619 19.3992 102.2849 19.5662 96.7629 28.2942 97.7059 41.1862 104.9989 48.6642 111.2449 55.0682 121.7609 55.5492 129.9299 53.3692 132.9699 52.5582 136.8189 51.1822 138.8239 48.6092 139.9889 47.1142 140.1899 45.7352 139.3789 43.9752M365.2305 34.74C364.7045 40.115 362.7255 46.082 356.6885 47.343 353.4725 48.015 350.7725 46.088 347.6835 45.702 342.7065 45.079 338.2875 49.693 334.3015 44.115 330.7225 39.104 329.9385 31.943 330.8775 26.036 332.3475 19.536 335.4615 17.228 341.4595 16.398 347.6285 15.544 354.5665 14.966 360.0215 18.6 365.4025 22.184 365.8045 28.877 365.2305 34.74M366.2265 17.467C361.4895 11.982 353.9505 10.464 347.0245 10.819 336.8975 11.339 328.9135 13.314 326.2065 24.15 326.1405 24.318 326.0885 24.502 326.0565 24.707 324.8825 32.084 325.7285 40.277 329.9845 46.638 331.6945 49.193 334.0815 51.349 337.1635 51.988 340.4175 52.663 342.5255 51.103 345.5415 50.678 347.9765 50.335 350.2475 51.796 352.5945 52.242 355.0795 52.714 357.4285 52.471 359.7825 51.557 366.1285 49.09 369.0225 43.53 369.9585 37.1 370.9205 30.493 370.8285 22.797 366.2265 17.467"/>
    <path fill="#FFFFFF" d="M350.2563 17.9364C350.3913 14.3474 350.5553 10.7584 350.6613 7.1684 350.7573 3.9494 345.7573 3.9524 345.6613 7.1684 345.5553 10.7584 345.3913 14.3474 345.2563 17.9364 345.1353 21.1544 350.1353 21.1494 350.2563 17.9364M15.997 10L16.365 10C22.115 10 27.422 15.234 27.422 19.436 27.422 20.762 26.316 22.016 25.137 22.016 24.99 22.016 24.769 22.016 24.621 21.942 21.377 20.836 23.294 15.307 15.702 15.307 8.92 15.307 5.308 24.669 5.308 33.515 5.308 41.403 8.183 48.848 14.227 48.848 19.387 48.848 20.714 47.226 23.884 43.54 24.105 43.246 24.474 43.246 24.769 43.246L25.137 43.246C25.874 43.246 27.865 43.54 27.865 44.573 26.243 50.986 19.682 54.008 13.933 54.008 10.468 54.008 7.445 52.976 5.086 50.249 1.77 46.047 0 39.56 0 33.073 0 22.31 4.865 11.327 15.997 10z"/>
  </g>
</svg>
