<svg xmlns="http://www.w3.org/2000/svg" width="521" height="58" viewBox="0 0 521 58">
  <g fill="none" fill-rule="evenodd">
    <g transform="translate(0 4)">
      <path fill="#FFC05B" d="M27,44 C37.4934102,44 50,35.7172679 50,25.5 C50,15.2827321 45.4934102,6 35,6 C24.5065898,6 13,15.2827321 13,25.5 C13,35.7172679 16.5065898,44 27,44 Z"/>
      <path fill="#231916" d="M38.1657,33.6941 C34.6587,37.4001 30.2597,38.8151 25.2617,39.0671 C20.3607,39.3131 13.9537,39.4841 9.8377,36.4431 C0.5617,29.5891 8.3777,16.3011 15.8627,11.8391 C17.7277,10.8491 19.1747,9.3611 20.1517,7.5891 C23.3747,9.6851 26.6117,10.0821 31.3367,9.9251 C44.5917,9.4841 45.4307,26.0171 38.1657,33.6941 M46.7147,15.0861 C44.8307,10.0581 40.5547,6.0051 35.1907,5.0331 C31.5877,4.3791 28.0267,5.8741 24.4677,4.5471 C22.7667,3.9121 22.0077,2.8921 20.7537,1.6861 C19.4887,0.4681 16.9437,0.8731 16.5757,2.7891 C16.1867,4.8131 15.1987,6.5351 13.3387,7.5221 C4.2217,12.9581 -2.8883,25.3231 2.6837,35.6741 C5.2987,40.5311 10.0877,42.9231 15.3957,43.6661 C21.4337,44.5101 28.6467,44.7401 34.3617,42.3081 C44.6057,37.9501 50.7087,25.7431 46.7147,15.0861"/>
      <path fill="#231916" d="M35.3337,12.9784 C31.2197,9.3794 26.4077,7.3214 21.8547,4.4984 C21.6207,4.2744 21.3357,4.1114 21.0217,4.0084 C20.0987,3.5154 19.2167,3.6914 18.5697,4.2174 C17.8017,4.2104 17.0287,4.5484 16.5027,5.3864 C12.0947,12.4134 7.9297,20.6094 8.8357,29.1694 C9.4077,34.5644 12.1427,38.9874 15.5397,43.0704 C17.6007,45.5464 21.1207,41.9924 19.0757,39.5344 C12.4767,31.6044 13.1637,23.3674 16.8567,15.1744 C16.4477,25.2404 17.3267,36.4174 24.4747,43.0704 C26.8277,45.2604 30.3717,41.7324 28.0097,39.5344 C21.5577,33.5294 21.3047,22.6684 21.8967,13.3804 C24.1127,16.5984 26.2207,19.9174 27.7167,23.4514 C29.7327,28.2154 30.0377,33.4364 30.4367,38.5294 C30.6867,41.7164 35.6887,41.7434 35.4367,38.5294 C35.0107,33.0804 34.6627,27.5094 32.6437,22.3714 C31.5797,19.6634 30.1757,17.0964 28.6297,14.6044 C34.9617,18.9174 39.9237,24.1424 39.0347,33.5624 C38.7327,36.7644 43.7347,36.7434 44.0347,33.5624 C44.8007,25.4464 41.3947,18.2814 35.3337,12.9784"/>
    </g>
    <g transform="translate(194 13)">
      <path fill="#F6A623" d="M29.9999998,41.9662507 C41.3218371,41.9662507 45.9999998,34.984956 45.9999998,25.1042888 C45.9999998,20.3307516 42.0781304,13.2885734 38.9999998,10.0805933 C35.7067578,6.64842755 33.0640718,7.21375735 27.2120283,7.21375735 C15.8901909,7.21375735 7,14.691981 7,24.5726482 C7,34.4533154 18.6781624,41.9662507 29.9999998,41.9662507 Z"/>
      <path fill="#231916" d="M17.5383,6.2833 C6.7873,4.5183 0.8123,16.4373 0.3283,25.6233 C-0.1797,35.2623 5.4673,41.5823 15.1993,40.8353 C18.3873,40.5913 18.4133,35.5893 15.1993,35.8353 C9.0313,36.3083 5.5023,33.8153 5.3003,27.3223 C5.1263,21.7603 8.5153,9.8413 16.2093,11.1043 C19.3573,11.6213 20.7113,6.8043 17.5383,6.2833"/>
      <path fill="#231916" d="M25.4098,37.0774 C21.8678,38.5654 17.4818,38.2994 16.1658,34.4014 C15.0538,31.1044 14.7818,27.5794 15.0298,24.1244 C15.2458,21.1124 15.8248,17.6034 17.2608,14.8754 C19.1618,11.2644 23.4188,8.8734 25.8078,13.4464 C27.8568,19.1134 32.1028,34.2664 25.4098,37.0774 M30.4708,11.6844 C30.4388,11.5964 30.3918,11.5244 30.3528,11.4444 C30.3138,11.3254 30.2788,11.2074 30.2188,11.0874 C25.6688,1.8494 15.4188,6.2124 12.2458,13.9344 C10.2938,18.6854 9.6258,24.1514 10.0728,29.2524 C10.4328,33.3714 11.3498,39.4024 15.3288,41.6244 C21.7918,45.2324 31.3498,42.0004 33.0968,34.7554 C34.8268,27.5814 33.0128,18.4904 30.4708,11.6844"/>
      <path fill="#231916" d="M27.9071,12.4077 C33.3501,8.4077 37.5821,21.2837 38.3451,24.7857 C39.6471,30.7697 37.2561,35.3537 30.4431,34.2717 C27.2951,33.7707 25.9401,38.5887 29.1141,39.0927 C38.7661,40.6257 45.1821,34.4867 43.4211,24.7327 C42.1111,17.4797 35.2151,0.8647 25.3831,8.0907 C22.8181,9.9757 25.3091,14.3167 27.9071,12.4077"/>
      <path fill="#231916" d="M24.2991,7.7114 C24.3501,5.9914 24.4011,4.2724 24.4521,2.5524 C24.5471,-0.6666 19.5471,-0.6636 19.4521,2.5524 C19.4011,4.2724 19.3501,5.9914 19.2991,7.7114 C19.2041,10.9304 24.2041,10.9274 24.2991,7.7114"/>
    </g>
    <g transform="translate(287 12)">
      <path fill="#C73B3B" d="M30,44 C41.3218374,44 50,30 48,20 C46,10 38.8218374,8 27.5,8 C16.1781626,8 7,16.2827321 7,26.5 C7,36.7172679 18.6781626,44 30,44 Z"/>
      <path fill="#231916" d="M12.6318,7.1314 C1.7788,11.3874 -2.4352,23.5204 1.5298,34.2294 C5.6218,45.2854 20.5378,46.5844 30.4798,44.1174 C42.3708,41.1664 47.3668,31.5474 46.5228,19.7454 C45.6168,7.0714 34.6248,5.4934 24.1878,7.3624 C21.0248,7.9294 22.3648,12.7484 25.5168,12.1844 C29.2358,11.5184 34.0668,10.6204 37.5888,12.5514 C41.2468,14.5564 41.6688,18.9274 41.5588,22.6704 C41.3078,31.2624 37.7708,37.2454 29.1508,39.2954 C22.3318,40.9174 10.3548,40.9574 6.6768,33.6374 C2.7888,25.9014 5.6388,15.2164 13.9608,11.9524 C16.9228,10.7914 15.6338,5.9544 12.6318,7.1314"/>
      <path fill="#231916" d="M33.3501,4.6369 C32.2531,2.2129 29.3671,2.3219 26.5971,3.0659 C26.5021,1.8449 25.9141,0.7899 24.4471,0.2809 C21.4631,-0.7541 20.0581,2.2909 19.1751,4.8199 C17.5161,3.7439 15.7991,2.9719 13.8751,2.4209 C12.2001,1.9419 10.0621,3.6789 10.7991,5.4959 C11.5931,7.4509 12.7951,8.7129 14.3161,9.6649 C12.9201,11.5809 12.0281,13.9349 13.7391,15.5899 C15.8881,17.6669 18.9961,15.5719 21.3821,13.7099 C23.0251,16.4189 25.6731,19.0399 28.4971,17.7169 C31.5211,16.2999 30.5941,12.9739 29.0331,10.1779 C30.7201,9.6269 32.2381,8.6749 33.3501,7.1609 C33.9031,6.4069 33.6981,5.4059 33.3501,4.6369"/>
    </g>
    <g transform="translate(382 4)">
      <ellipse cx="25.5" cy="23" fill="#F68B23" rx="18.5" ry="20"/>
      <path fill="#231916" d="M32.3632,34.9268 C24.9462,43.2028 10.8992,40.6018 6.7452,30.6028 C3.4902,22.7678 5.8982,14.2318 12.0902,8.6058 C16.3862,4.7028 21.8152,4.8758 27.1292,6.7678 C36.4502,11.4358 39.2742,27.2158 32.3632,34.9268 M29.4002,2.3188 C29.2992,2.2708 29.2002,2.2458 29.1002,2.2118 C29.0032,2.1618 28.9112,2.1068 28.8022,2.0668 C20.1312,-1.1432 12.5642,0.3698 6.7882,6.8818 C-0.6868,15.3108 -2.5058,28.8258 5.2262,37.8398 C13.6022,47.6038 30.3342,47.1308 37.5952,36.2538 C44.4482,25.9878 41.0752,7.8388 29.4002,2.3188"/>
      <path fill="#231916" d="M21.8278,12.5534 C22.3108,12.5564 22.7928,12.5584 23.2758,12.5614 C24.5838,12.5684 25.8358,11.4064 25.7758,10.0614 C25.7148,8.7004 24.6768,7.5694 23.2758,7.5614 C22.7928,7.5584 22.3108,7.5564 21.8278,7.5534 C20.5198,7.5464 19.2678,8.7084 19.3278,10.0534 C19.3888,11.4144 20.4258,12.5454 21.8278,12.5534"/>
    </g>
    <g transform="translate(98)">
      <path fill="#6ED880" d="M30,45 C41.8741221,45 50,36.5979797 50,25 C50,13.4020203 43.3741221,4 31.5,4 C19.6258779,4 10,13.4020203 10,25 C10,36.5979797 18.1258779,45 30,45 Z"/>
      <path fill="#231916" d="M21.9826,7.656 C28.7256,3.866 37.0026,6.384 41.0256,12.836 C45.7816,20.463 43.7856,29.182 37.2196,35.013 C34.8086,37.154 38.3556,40.68 40.7546,38.549 C49.3746,30.894 51.2616,18.756 44.6006,9.182 C38.9906,1.116 28.0746,-1.504 19.4586,3.339 C16.6536,4.915 19.1716,9.236 21.9826,7.656"/>
      <path fill="#231916" d="M28.5889,41.0062 C24.5009,41.7872 20.0059,41.7962 16.0319,40.4502 C5.3419,36.8292 3.0739,22.2462 8.9089,13.5842 C11.1329,10.7002 14.5269,7.2262 18.3709,6.0912 C18.4299,6.3152 18.4799,6.5332 18.5629,6.7752 C19.3509,9.0552 19.6679,9.0882 19.8619,11.9492 C19.9089,12.6452 19.7429,13.3362 19.9639,14.0532 C20.4389,15.5872 21.2519,15.8372 22.5239,16.7752 C25.5259,18.9892 26.0289,21.7292 28.2509,24.3842 C29.2639,25.5942 30.5419,25.7472 31.7819,26.5462 C34.8359,28.5132 33.9439,28.7992 33.3599,31.5822 C33.1049,32.7942 33.2219,33.8872 33.8189,34.9822 C34.3119,35.8872 36.6689,37.6352 36.5999,37.9762 C36.3039,39.4322 29.8879,40.7582 28.5889,41.0062 M41.3789,35.9752 C40.9779,35.1052 40.1689,34.6262 39.6509,33.8702 C38.7079,32.4912 38.4509,33.4452 38.7599,31.5262 C39.0709,29.5872 40.4699,28.5542 39.6699,26.3212 C38.9599,24.3392 37.2229,23.2082 35.3779,22.4372 C33.6079,21.6972 32.7659,21.9172 31.4589,19.9632 C30.7969,18.9742 30.4519,17.8022 29.7529,16.7992 C28.4119,14.8752 26.7189,13.6702 24.8929,12.4062 C24.9659,11.2652 25.2089,10.1572 24.9229,8.9442 C24.5449,7.3432 22.8179,5.5392 23.1019,3.8712 C23.3639,2.3292 22.4489,0.6652 20.6909,0.7062 C13.9619,0.8652 8.4259,6.0882 4.5919,11.0602 C4.4609,11.2302 4.3619,11.3992 4.2849,11.5662 C-1.2371,20.2942 -0.2941,33.1862 6.9989,40.6642 C13.2449,47.0682 23.7609,47.5492 31.9299,45.3692 C34.9699,44.5582 38.8189,43.1822 40.8239,40.6092 C41.9889,39.1142 42.1899,37.7352 41.3789,35.9752"/>
    </g>
    <g transform="translate(473 4)">
      <path fill="#7ED321" d="M29.694354,49.1922612 C42.1623269,49.1922612 48,40.1949168 48,29.0961304 C48,17.9973439 42.1623269,9 29.694354,9 C17.2263811,9 7.11909197,17.9973441 7.11909197,29.0961306 C7.11909197,40.1949171 17.2263811,49.1922612 29.694354,49.1922612 Z"/>
      <path fill="#231916" d="M40.2305,30.74 C39.7045,36.115 37.7255,42.082 31.6885,43.343 C28.4725,44.015 25.7725,42.088 22.6835,41.702 C17.7065,41.079 13.2875,45.693 9.3015,40.115 C5.7225,35.104 4.9385,27.943 5.8775,22.036 C7.3475,15.536 10.4615,13.228 16.4595,12.398 C22.6285,11.544 29.5665,10.966 35.0215,14.6 C40.4025,18.184 40.8045,24.877 40.2305,30.74 M41.2265,13.467 C36.4895,7.982 28.9505,6.464 22.0245,6.819 C11.8975,7.339 3.9135,9.314 1.2065,20.15 C1.1405,20.318 1.0885,20.502 1.0565,20.707 C-0.1175,28.084 0.7285,36.277 4.9845,42.638 C6.6945,45.193 9.0815,47.349 12.1635,47.988 C15.4175,48.663 17.5255,47.103 20.5415,46.678 C22.9765,46.335 25.2475,47.796 27.5945,48.242 C30.0795,48.714 32.4285,48.471 34.7825,47.557 C41.1285,45.09 44.0225,39.53 44.9585,33.1 C45.9205,26.493 45.8285,18.797 41.2265,13.467"/>
      <path fill="#231916" d="M25.2563,13.9364 C25.3913,10.3474 25.5553,6.7584 25.6613,3.1684 C25.7573,-0.0506 20.7573,-0.0476 20.6613,3.1684 C20.5553,6.7584 20.3913,10.3474 20.2563,13.9364 C20.1353,17.1544 25.1353,17.1494 25.2563,13.9364"/>
    </g>
  </g>
</svg>
