<svg xmlns="http://www.w3.org/2000/svg" width="36" height="45" viewBox="0 0 36 45" xmlns:xlink="http://www.w3.org/1999/xlink">
  <defs>
    <polygon id="a" points="0 .599 0 43.992 14.935 43.992 14.935 .599 0 .599"/>
  </defs>
  <g fill="none" fill-rule="evenodd">
    <path fill="#888888" d="M11.1231161,10.4195089 C10.9471339,10.4195089 10.8466875,9.9421875 10.8466875,9.03816964 C10.8466875,8.13415179 10.7719554,7.10477679 10.9471339,7.05495536 C11.0676696,7.02040179 11.2733839,8.61147321 11.2733839,9.18924107 C11.2733839,9.76700893 11.2990982,10.4195089 11.1231161,10.4195089 M11.9266875,6.1509375 C11.9017768,5.34736607 10.8724018,5.67361607 10.3701696,5.74915179 C9.8679375,5.82388393 10.0937411,6.50209821 10.0937411,6.97941964 C10.0937411,6.97941964 10.0688304,9.6665625 10.0688304,10.7208482 C10.0688304,11.7751339 11.0982054,11.5999554 11.6004375,11.4488839 C12.1026696,11.2986161 12.0022232,10.6959375 11.9765089,10.0683482 C11.9515982,9.43995536 11.9515982,6.95450893 11.9266875,6.1509375 M12.9560625,13.9600446 C12.1524911,14.5129018 9.39061607,16.4213839 8.93820536,16.9236161 C8.48659821,17.4258482 7.98436607,18.2294196 7.98436607,19.5352232 C7.98436607,20.8410268 8.43597321,23.9042411 8.0848125,23.9042411 C7.73284821,23.9042411 6.97990179,24.0553125 6.97990179,23.7539732 C6.97990179,23.7539732 7.3310625,18.9325446 6.77900893,18.0285268 C6.22615179,17.1245089 2.76115179,14.4124554 2.15847321,13.7591518 C1.55579464,13.1066518 1.30427679,11.8008482 1.25445536,10.9466518 C1.20383036,10.0932589 1.35490179,2.81049107 2.15847321,2.2584375 C2.96204464,1.70558036 8.33552679,1.90647321 10.3444554,1.95709821 C12.3533839,2.00691964 13.5089196,1.90647321 13.6093661,3.6140625 C13.7098125,5.32165179 13.5587411,11.0977232 13.5587411,11.9511161 C13.5587411,12.8053125 13.7596339,13.4079911 12.9560625,13.9600446 M8.98883036,39.4236161 C8.88838393,42.1854911 9.08927679,42.7383482 8.68749107,42.7383482 C8.28570536,42.7383482 7.68302679,42.9392411 7.63240179,41.3819196 C7.58258036,39.8254018 7.63240179,31.3372768 7.63240179,30.1319196 C7.63240179,28.9265625 7.58258036,25.6118304 7.98436607,25.4615625 C8.34195536,25.3273661 8.93820536,25.6624554 8.88838393,27.1691518 C8.83775893,28.6758482 9.08927679,36.6609375 8.98883036,39.4236161 M14.7142768,3.96602679 C14.6138304,1.00245536 13.3578482,0.751741071 11.8511518,0.600669643 C10.3444554,0.450401786 4.5691875,0.249508929 2.71052679,0.550848214 C0.852669643,0.8521875 0.953116071,1.75620536 0.701598214,3.56424107 C0.450883929,5.37227679 0.551330357,12.0515625 0.651776786,13.5582589 C0.752223214,15.0649554 1.30427679,15.0151339 2.05802679,15.4667411 C2.81097321,15.9191518 5.72391964,17.6765625 5.82436607,18.5805804 C5.9248125,19.4845982 5.9248125,24.0553125 5.9248125,24.0553125 C5.12124107,24.0046875 4.61900893,25.2100446 4.5185625,26.8678125 C4.41811607,28.5247768 4.66963393,38.5694196 4.66963393,41.5828125 C4.66963393,44.5962054 7.28124107,44.0939732 9.13909821,44.1944196 C10.9977589,44.2948661 10.4955268,40.0761161 10.5453482,36.6609375 C10.5959732,33.2457589 10.2946339,26.3655804 10.3444554,25.4109375 C10.3950804,24.4570982 9.23954464,24.0046875 9.23954464,24.0046875 C9.23954464,24.0046875 9.4404375,19.3343304 9.54088393,18.1787946 C9.64133036,17.0240625 11.8013304,16.2204911 13.0066875,15.4169196 C14.2120446,14.6133482 14.6636518,13.5582589 14.6636518,12.5537946 C14.6636518,11.5493304 14.8147232,6.92879464 14.7142768,3.96602679 M4.9460625,10.9972768 C4.71945536,10.9715625 4.31766964,8.56084821 4.34258036,8.00879464 C4.35463393,7.75808036 3.94079464,6.70299107 4.31766964,6.57763393 C4.69454464,6.45227679 5.07141964,6.22566964 5.02079464,6.8540625 C4.97097321,7.48165179 5.02079464,9.56611607 5.04650893,10.1181696 C5.07141964,10.6702232 5.17186607,11.0221875 4.9460625,10.9972768 M3.4385625,5.7234375 C2.93633036,6.02477679 3.4891875,9.36522321 3.56472321,10.6959375 C3.63945536,12.0266518 4.44704464,11.7799554 4.74436607,12.1520089 C4.84561607,12.2781696 5.09633036,12.1270982 5.44829464,12.1021875 C5.79945536,12.0772768 5.87499107,10.5199554 5.87499107,9.69147321 C5.87499107,8.86299107 5.87499107,6.60254464 5.9248125,5.74915179 C5.9754375,4.89495536 3.94079464,5.42209821 3.4385625,5.7234375 M8.43597321,10.0177232 C8.3604375,11.2479911 8.28570536,12.2026339 8.00927679,12.1777232 C7.73284821,12.1520089 7.68302679,10.4950446 7.65811607,9.06388393 C7.63240179,7.63191964 7.58258036,4.89495536 7.58258036,4.89495536 C7.58258036,4.56870536 7.53195536,4.44334821 7.80838393,4.3678125 C8.0848125,4.29227679 8.46088393,4.24245536 8.4110625,4.64424107 C8.3604375,5.04602679 8.51150893,8.78745536 8.43597321,10.0177232 M9.23954464,3.83986607 C9.26445536,2.73495536 7.7079375,3.2371875 7.13016964,3.43808036 C6.55320536,3.63897321 6.60302679,4.94558036 6.6785625,5.89941964 C6.75409821,6.8540625 6.65365179,11.1226339 6.80391964,12.2524554 C6.95499107,13.3830804 7.55766964,13.0311161 7.88391964,13.1564732 C7.88391964,13.1564732 8.33552679,13.2070982 8.68749107,13.1821875 C9.03865179,13.1564732 9.26445536,10.6959375 9.26445536,9.26477679 C9.26445536,7.8328125 9.21463393,4.94558036 9.23954464,3.83986607" transform="translate(20.893 .41)"/>
    <g transform="translate(0 .41)">
      <mask id="b" fill="white">
        <use xlink:href="#a"/>
      </mask>
      <path fill="#888888" d="M6.3118125,3.0735 C5.42466964,3.22376786 4.38645536,4.21216071 3.68333036,5.08242857 C2.98020536,5.95269643 2.69574107,7.64341071 3.04770536,8.94921429 C3.39886607,10.2558214 4.5624375,10.7468036 4.8718125,10.4727857 C5.45841964,9.95448214 5.03975893,9.367875 4.60422321,8.16251786 C4.1686875,6.95716071 4.75529464,6.10376786 5.39091964,5.35001786 C6.02734821,4.59707143 6.93136607,4.462875 7.6674375,4.69751786 C8.4043125,4.93216071 8.58833036,5.08242857 8.92341964,4.16153571 C9.25850893,3.24064286 7.19895536,2.92323214 6.3118125,3.0735 M7.24074107,18.2489464 C6.97797321,18.1806429 3.80065179,14.4319821 2.8468125,12.7501071 C1.89216964,11.0674286 1.18904464,7.80251786 2.34458036,5.166 C3.4993125,2.52948214 6.6886875,1.77573214 8.4211875,2.02725 C10.1536875,2.27796429 13.6444018,3.91082143 13.7199375,7.30028571 C13.7954732,10.6905536 12.7154732,12.0469821 11.1830625,14.0559107 C9.65145536,16.0648393 8.39627679,18.5502857 7.24074107,18.2489464 M9.27538393,40.5480536 C9.27538393,42.5320714 9.09940179,42.6076071 8.37136607,42.6325179 C7.64252679,42.6574286 7.89404464,37.50975 7.84341964,35.2999286 C7.79359821,33.0901071 7.94386607,27.716625 7.96958036,26.7619821 C7.99449107,25.8081429 8.15600893,25.8418929 8.29583036,25.7326071 C9.4505625,24.8285893 9.27538393,38.5648393 9.27538393,40.5480536 M8.44609821,23.2214464 C8.97404464,23.3468036 8.89850893,24.0250179 8.57225893,24.3014464 C8.24520536,24.5770714 7.94386607,24.4018929 7.49225893,23.9494821 C7.03984821,23.497875 7.98163393,23.1105536 8.44609821,23.2214464 M13.0666339,14.2568036 C15.6533304,10.0123393 15.4773482,4.99001786 13.0168125,2.404125 C10.5554732,-0.182571429 4.98109821,0.344571429 2.94725893,1.90189286 C0.912616071,3.45841071 -0.669616071,6.99894643 0.285026786,10.9420714 C1.23966964,14.8843929 5.45841964,18.4755536 5.88511607,18.7768929 C6.3118125,19.0782321 6.03538393,22.9699286 6.03538393,22.9699286 C5.58377679,23.0454643 5.03091964,23.8490357 5.00600893,25.0543929 C4.98109821,26.25975 5.00600893,37.6608214 4.9561875,39.619125 C4.9055625,41.5782321 4.9561875,41.8538571 5.75975893,43.0093929 C6.56252679,44.164125 8.87359821,44.0387679 9.7768125,43.9134107 C10.6808304,43.7880536 10.6559196,42.2058214 10.6559196,40.5480536 C10.6559196,38.8910893 10.4550268,26.9130536 10.4550268,25.7326071 C10.4550268,24.5521607 10.1287768,23.5983214 9.87725893,23.2712679 C9.62654464,22.9450179 9.4505625,22.8694821 9.47627679,22.417875 C9.5011875,21.9654643 9.30029464,19.2285 9.4505625,18.9520714 C9.60163393,18.6764464 10.4799375,18.5004643 13.0666339,14.2568036" mask="url(#b)"/>
    </g>
  </g>
</svg>
