<svg xmlns="http://www.w3.org/2000/svg" width="47" height="45" viewBox="0 0 47 45" xmlns:xlink="http://www.w3.org/1999/xlink">
  <defs>
    <polygon id="a" points="46.15 44.525 0 44.525 0 0 46.15 0"/>
  </defs>
  <g fill="none" fill-rule="evenodd">
    <mask id="b" fill="white">
      <use xlink:href="#a"/>
    </mask>
    <path fill="#888888" d="M21.9788,32.9931 C22.0298,33.2961 22.0498,33.6431 21.6398,33.7511 C21.2298,33.8591 20.7878,33.7781 19.9808,33.8371 C19.1728,33.8951 19.3798,33.2761 19.3918,32.8851 C19.4028,32.4941 20.2648,32.6681 20.5518,32.6111 C21.9458,32.3371 21.9278,32.6901 21.9788,32.9931 L21.9788,32.9931 Z M22.3848,31.2511 C21.8178,31.3471 19.7538,31.3451 19.4198,31.4401 C19.0068,31.5581 18.5438,31.7831 18.2858,32.0991 C18.0278,32.4151 18.3898,33.6381 18.3778,34.0291 C18.3668,34.4211 18.5198,35.0961 19.6488,35.0991 C20.7778,35.1031 22.1598,34.9861 22.5008,34.9291 C22.8408,34.8711 23.0988,34.3221 23.0648,33.4321 C23.0318,32.5431 22.9528,31.1551 22.3848,31.2511 L22.3848,31.2511 Z M13.6538,34.6331 C13.6488,35.2961 13.1188,35.1521 12.3488,35.2041 C11.5788,35.2561 11.7668,34.5241 11.7148,33.9881 C11.6638,33.4511 12.2378,33.6271 12.6918,33.5501 C12.6918,33.5501 12.9318,33.5871 13.2728,33.5301 C13.6128,33.4721 13.6588,33.9711 13.6538,34.6331 L13.6538,34.6331 Z M14.7708,34.7951 C14.6418,33.5711 14.8478,32.4851 14.0708,32.2661 C13.2948,32.0471 12.3548,32.2451 12.3548,32.2451 C11.6358,32.3661 10.3738,32.2681 10.4258,33.2711 C10.4788,34.2741 10.8608,35.8451 10.9748,36.0591 C11.0888,36.2731 11.1718,36.5311 12.3508,36.3711 C13.5308,36.2111 13.9848,36.1341 14.2498,36.0891 C14.5148,36.0451 14.8998,36.0181 14.7708,34.7951 L14.7708,34.7951 Z M27.8638,37.6431 C27.8198,38.0781 27.8208,38.3121 27.2718,38.2881 C26.7228,38.2641 26.3448,38.3281 25.7888,38.2661 C25.2338,38.2041 25.5608,37.8371 25.5288,37.4151 C25.4958,36.9921 26.1548,37.2381 26.5818,37.1981 C27.6158,37.1011 27.9068,37.2071 27.8638,37.6431 L27.8638,37.6431 Z M28.1058,35.8501 C27.0648,35.9091 26.5658,35.9551 26.5658,35.9551 C25.8978,35.9121 24.5908,35.7821 24.3658,36.5211 C24.1398,37.2601 24.2178,38.4141 24.1938,38.7301 C24.1688,39.0451 24.6248,39.9031 25.6598,39.8061 C26.6948,39.7091 26.8148,39.7271 27.4518,39.8141 C28.0898,39.9011 28.8658,39.8871 29.0318,38.3411 C29.1998,36.7941 29.1468,35.7911 28.1058,35.8501 L28.1058,35.8501 Z M30.8318,33.0931 C30.4528,33.1571 30.0558,33.1071 29.2858,33.1601 C28.5158,33.2121 28.8308,32.7701 28.8238,32.4981 C28.8168,32.2271 29.2878,32.4491 29.6878,32.3131 C30.8288,31.9261 31.0568,32.3541 31.0888,32.5441 C31.1208,32.7331 31.2098,33.0291 30.8318,33.0931 L30.8318,33.0931 Z M31.0918,30.9471 C29.9308,30.9881 29.5898,31.0451 29.1428,31.1601 C28.7998,31.2481 27.6538,31.1001 27.6178,32.2741 C27.5828,33.4471 27.5218,34.4701 28.2598,34.4621 C28.9988,34.4541 30.7208,34.5131 31.2948,34.4551 C31.8688,34.3971 32.2408,34.0621 32.2078,33.1721 C32.1738,32.2821 32.2528,30.9071 31.0918,30.9471 L31.0918,30.9471 Z M17.8598,39.0221 C17.3988,39.0611 17.4808,39.0861 16.7618,39.2071 C16.0428,39.3291 16.2688,38.8231 16.1668,38.4511 C16.0648,38.0791 16.8978,38.1461 17.2638,38.0321 C18.3738,37.6891 18.5258,38.1301 18.5898,38.5091 C18.6538,38.8871 18.3198,38.9831 17.8598,39.0221 L17.8598,39.0221 Z M18.4728,36.6601 C17.3998,36.7641 17.1538,36.9221 17.1538,36.9221 C16.4478,37.1191 14.8768,37.0341 14.9988,37.9871 C15.1208,38.9391 15.1978,39.6271 15.4638,40.0491 C15.7298,40.4711 16.0898,40.7611 17.2688,40.3671 C18.4478,39.9731 19.9948,40.3731 19.9048,39.3771 C19.8138,38.3801 19.5448,36.5571 18.4728,36.6601 L18.4728,36.6601 Z M32.6718,12.4251 C32.3498,12.1291 31.7968,12.3061 31.6508,12.5971 C31.3298,13.2351 32.3978,14.0281 33.2388,14.6261 C34.0788,15.2231 33.8398,15.4191 34.0488,15.7341 C34.2578,16.0491 35.0718,16.0291 35.2658,15.5671 C35.4608,15.1061 35.2888,14.5521 34.7448,14.0981 C34.2018,13.6451 32.9948,12.7211 32.6718,12.4251 L32.6718,12.4251 Z M30.2438,15.5601 C29.5928,15.1641 29.2678,15.3811 29.1458,15.7451 C28.9388,16.3641 29.9428,16.7781 30.5498,17.1431 C31.1568,17.5071 31.7708,18.3771 32.3378,18.2811 C32.9058,18.1851 32.6828,17.3271 32.3038,16.9241 C31.9238,16.5211 30.8938,15.9561 30.2438,15.5601 L30.2438,15.5601 Z M43.9838,6.1151 C43.5558,6.5761 42.3218,7.7971 42.5748,8.1431 C42.8278,8.4901 43.4028,8.6651 43.1518,9.0191 C42.8998,9.3731 42.3258,9.6651 41.8288,10.1771 C41.3318,10.6891 41.0738,11.2391 40.5178,10.7101 C39.9608,10.1811 37.6608,8.5461 36.9018,7.9731 C36.3998,7.5941 35.2218,7.2451 35.4168,6.7841 C35.6118,6.3231 36.2948,4.3781 36.7018,3.1021 C37.1098,1.8271 37.2908,1.2901 37.7018,1.4161 C38.1118,1.5411 38.9338,2.0251 39.1108,2.1511 C39.2868,2.2771 39.6288,2.4521 39.3268,2.9711 C39.0248,3.4891 38.2288,5.6861 38.3298,6.0581 C38.4318,6.4301 38.6728,6.7011 39.1018,6.9401 C39.5318,7.1791 40.0188,7.5251 40.2578,7.3281 C40.4968,7.1321 41.2518,6.0701 42.1328,5.0651 C43.0138,4.0601 43.1958,3.5231 43.6508,3.9141 C44.1058,4.3041 44.4288,4.6001 44.5938,4.8831 C44.7578,5.1671 44.4118,5.6531 43.9838,6.1151 L43.9838,6.1151 Z M40.5058,13.8651 C40.3878,14.5461 39.7638,15.0021 38.8578,16.0891 C37.9508,17.1771 36.8258,18.8071 36.5608,18.8521 C36.2958,18.8971 33.6778,19.0671 30.5978,18.8081 C27.5178,18.5501 26.2118,18.4211 25.8768,18.0491 C25.8768,18.0491 25.7298,17.1791 26.0248,16.8561 C26.3208,16.5341 29.4858,12.6911 30.5058,11.3501 C31.5248,10.0111 33.5458,7.9181 33.9248,8.0871 C34.3038,8.2571 37.2298,10.3701 38.4938,11.4021 C39.7578,12.4341 40.6238,13.1831 40.5058,13.8651 L40.5058,13.8651 Z M40.1648,22.4471 C40.2118,23.6451 40.4188,25.7901 40.3008,26.9391 C40.1838,28.0871 40.0798,29.5451 38.5648,29.3341 C37.0508,29.1231 34.3538,28.1381 32.4548,28.1871 C30.5558,28.2351 29.7358,28.4521 26.1898,28.4281 C22.6438,28.4041 20.1508,28.1641 15.8868,28.9621 C11.6238,29.7601 8.0848,30.2411 6.7538,30.4271 C5.4228,30.6131 4.5968,30.7921 4.2608,29.9531 C3.9248,29.1151 3.1248,27.1481 3.1248,27.1481 C2.7888,26.3101 1.1668,23.3921 2.0118,23.0931 C2.8568,22.7951 5.3798,22.2911 8.4128,21.8171 C11.4468,21.3441 15.8248,20.9931 16.6578,20.8521 C17.4908,20.7121 17.8248,20.8501 17.8248,20.8501 C17.8248,20.8501 17.9968,24.1681 18.4268,24.6411 C18.8568,25.1131 19.6398,25.3701 20.9138,25.3101 C22.1888,25.2511 24.1008,25.2781 24.5168,25.2071 C24.9328,25.1371 25.9728,24.6111 25.9458,23.5261 C25.9178,22.4411 25.6928,20.4161 25.9198,20.3771 C26.1468,20.3391 29.4098,20.7611 31.8328,20.8191 C34.2558,20.8761 36.1168,20.8341 37.6308,20.8121 C39.1458,20.7901 40.1188,21.2481 40.1648,22.4471 L40.1648,22.4471 Z M36.3058,34.6201 C35.8498,36.7601 35.0798,39.5761 34.8048,40.7131 C34.5298,41.8491 33.9308,42.2231 33.1488,42.4331 C32.3668,42.6431 31.1748,42.7271 29.4898,42.6621 C27.8048,42.5961 23.7348,42.4661 20.7758,42.4601 C17.8168,42.4541 12.9268,42.7741 11.4508,42.7901 C9.9748,42.8061 9.2948,40.6241 8.8488,38.6761 C8.4028,36.7271 7.2978,33.8781 6.8168,33.1021 C6.3358,32.3271 6.7598,32.0831 7.1048,32.0421 C7.9058,31.9451 13.1218,31.0251 17.2538,30.3661 C21.3848,29.7071 23.1768,29.9491 24.5908,30.0221 C26.0038,30.0941 27.5628,30.3371 30.4338,30.2801 C33.3048,30.2231 35.6338,30.4131 36.4358,30.7841 C37.2378,31.1541 36.7618,32.4801 36.3058,34.6201 L36.3058,34.6201 Z M14.0028,18.4981 C13.8208,19.0351 14.1488,19.1351 13.2408,19.2891 C12.3328,19.4421 11.9908,18.7991 12.0078,18.2131 C12.0258,17.6261 12.6048,17.1391 13.0528,17.0241 C13.0528,17.0241 13.3618,17.0111 13.9808,17.2181 C14.5998,17.4241 14.1838,17.9621 14.0028,18.4981 L14.0028,18.4981 Z M15.5068,16.8041 C15.3358,16.5381 16.2058,16.1021 16.5328,15.7351 C16.8598,15.3691 17.3328,14.9391 17.3968,15.3171 C17.4608,15.6951 17.8908,18.9311 17.5878,18.9831 C17.2848,19.0341 16.4458,19.1371 16.1428,19.1881 C15.8408,19.2391 14.9498,19.0391 15.2268,18.8361 C15.5048,18.6341 15.8238,17.2961 15.5068,16.8041 L15.5068,16.8041 Z M6.0058,11.7141 C7.2268,10.4181 9.2738,8.7101 12.4168,9.1131 C15.5598,9.5161 16.8948,11.1981 17.0908,11.4371 C17.2868,11.6771 17.4548,13.3611 17.3988,13.7211 C17.3428,14.0801 17.2998,14.2821 17.0658,14.0501 C16.8318,13.8171 16.6868,13.8801 16.4348,14.2341 C16.1828,14.5881 15.4648,15.1761 15.0558,15.5181 C14.6468,15.8601 14.3688,15.8291 14.0028,15.7351 C13.6368,15.6411 13.4658,15.3201 13.6668,14.8961 C13.8678,14.4731 14.3998,12.5541 14.5628,12.1371 C14.7258,11.7201 14.8758,11.2281 14.6858,11.0261 C14.4968,10.8251 14.0488,10.7061 13.8028,10.8641 C13.5568,11.0221 13.2318,12.3231 12.8058,13.7181 C12.3798,15.1141 12.2488,15.7201 12.0908,15.9411 C11.9338,16.1621 11.8518,15.9041 11.4208,15.1981 C10.9898,14.4921 9.7568,12.9491 9.3828,12.3501 C9.0088,11.7521 8.5738,11.7091 8.1958,12.0061 C7.8178,12.3031 8.1598,12.7131 8.3808,13.1041 C8.6028,13.4941 9.6668,15.1831 10.1158,15.7691 C10.5658,16.3541 10.9828,16.7511 10.7368,16.9091 C10.4908,17.0681 9.6068,16.4391 8.7608,16.2701 C7.9148,16.1021 6.6768,15.6881 5.7998,15.5641 C4.9228,15.4401 5.0868,15.7231 4.9428,16.2531 C4.7988,16.7841 5.6448,16.9521 6.7248,17.1201 C7.8038,17.2881 9.3258,17.7711 9.6598,17.9091 C9.9948,18.0471 10.1778,18.2101 10.1348,18.4121 C10.0908,18.6141 8.8418,18.8251 8.4828,19.0031 C8.1238,19.1801 8.5038,20.0501 8.5038,20.0501 L5.7158,20.3661 C5.7158,20.3661 5.7638,19.5011 5.5108,19.1551 C5.2578,18.8081 4.8098,18.6891 4.0998,17.2521 C3.3898,15.8151 4.7848,13.0111 6.0058,11.7141 L6.0058,11.7141 Z M18.5938,8.8091 L23.8358,8.5071 L24.3798,23.2451 L19.7488,23.4831 L18.5938,8.8091 Z M46.0508,4.7541 C45.8728,4.3951 44.4488,2.4161 44.0068,2.1021 C43.5638,1.7871 42.7208,2.7861 42.1798,3.2671 C41.6378,3.7481 40.1528,5.5561 39.7868,5.6951 C39.4218,5.8351 40.8908,2.5501 41.0148,1.9071 C41.1398,1.2631 39.2828,0.4091 37.9068,0.0961 C36.5308,-0.2159 36.4558,0.2641 35.9658,1.0471 C35.4748,1.8311 34.1598,6.0231 34.1598,6.0231 C32.4558,6.0781 31.2358,7.6071 30.0018,9.0611 C28.7688,10.5151 25.9018,15.2031 25.9018,15.2031 C25.9018,15.2031 25.4348,9.6771 25.4318,8.2761 C25.4288,6.8761 24.2798,6.5251 23.3458,6.5271 C22.4118,6.5291 18.8788,6.8151 17.8948,6.9811 C16.9108,7.1471 17.0658,8.5221 17.0658,8.5221 C16.5978,8.0561 14.6778,7.2911 12.2418,7.1571 C9.8058,7.0241 6.8438,8.3811 5.5588,9.5321 C4.2748,10.6831 2.2988,13.2751 2.2298,16.0891 C2.1598,18.9031 4.2458,20.6531 4.2458,20.6531 C-1.4692,21.3851 0.1148,24.3091 0.4708,25.2611 C0.8258,26.2131 2.4608,29.4401 3.0258,30.9401 C3.5908,32.4411 5.2178,32.1661 5.4828,32.1211 C5.7478,32.0761 6.6778,35.9671 7.3788,38.9631 C8.0798,41.9581 8.6248,43.3451 9.9268,44.1381 C11.2288,44.9301 15.3218,44.2771 20.4828,44.1831 C25.6438,44.0901 30.5168,44.8241 33.1978,44.3321 C35.8778,43.8401 36.4898,41.0121 37.1018,37.9501 C37.7128,34.8891 38.4178,31.2271 38.6388,31.1511 C38.8598,31.0751 39.4718,31.2441 40.0328,31.1101 C40.5948,30.9771 41.2118,30.4831 41.6378,29.3211 C42.0648,28.1591 41.7458,23.9701 41.7848,21.6671 C41.8238,19.3641 39.6838,18.9081 39.1348,18.8841 C38.5858,18.8601 40.0918,17.6321 41.6268,15.6601 C43.1618,13.6881 41.8518,12.1581 41.8518,12.1581 C41.8518,12.1581 41.9968,11.8611 42.2428,11.7031 C42.4878,11.5451 44.2698,9.8811 45.1328,9.2291 C45.9958,8.5781 45.2688,7.9611 44.8648,7.6401 C44.4598,7.3191 44.9138,7.0091 45.5678,6.2751 C46.2228,5.5421 46.2278,5.1131 46.0508,4.7541 L46.0508,4.7541 Z" mask="url(#b)"/>
  </g>
</svg>
